<svg xmlns="http://www.w3.org/2000/svg" xmlns:xlink="http://www.w3.org/1999/xlink" viewBox="0 0 215.24 107.62">

    <title>
        waqc-icon
    </title>
    
	<path fill="#654ff0" d="M66.12,0c0,.19,0,.38,0,.58a12.34,12.34,0,1,1-24.68,0c0-.2,0-.39,0-.58H0V107.62H107.62V0ZM51.38,96.1,46.14,70.17H46L40.39,96.1H33.18L25,58h7.13L37,83.93h.09L42.94,58h6.67L54.9,84.25H55L60.55,58h7L58.46,96.1Zm39.26,0-2.43-8.48H75.4L73.53,96.1H66.36L75.59,58H86.83L98,96.1ZM79.87 67.39 L76.76 81.37 L86.44 81.37 L82.87 67.39 L79.87 67.39z"/>
	<path fill="black" d="M 107.62 0
							V 107.62
							H 215.24
							V 0
							H 178.93
							V 17.5
							h -35
							v -17.5
							Z
							M 171.93 0
							V 10.5
							h -21
							V 0
							z
							M138.4 93.6L145.4 103.9L137.2 103.9L132 95.4L131.6 95.4Q125 95.4 121.5 90.4A17 17 0 0 1 119.3 85.7Q118 81.6 118 75.9A40.2 40.2 0 0 1 118.3 70.5Q118.7 67.8 119.5 65.6A16.4 16.4 0 0 1 121.5 61.5A11.3 11.3 0 0 1 129.8 56.6A15.9 15.9 0 0 1 131.7 56.5A13.5 13.5 0 0 1 136.1 57.2A11.1 11.1 0 0 1 141.7 61.5Q144.3 65.3 145 71.3A42 42 0 0 1 145.2 76A40.8 40.8 0 0 1 144.9 80.7Q144.5 84.2 143.5 86.9A16.2 16.2 0 0 1 141.7 90.3A12 12 0 0 1 138.4 93.6zM125.2 76A41.3 41.3 0 0 0 125.3 79.5Q125.6 83 126.6 85.3A10.7 10.7 0 0 0 126.8 85.8A7.7 7.7 0 0 0 127.9 87.5A4.7 4.7 0 0 0 131.6 89.2A5 5 0 0 0 136.2 86.2Q137.5 83.8 137.8 79.5A44.2 44.2 0 0 0 138 76A42 42 0 0 0 137.8 71.6Q137.3 67.3 135.8 65A4.8 4.8 0 0 0 131.7 62.7Q128.5 62.7 126.8 66.1Q125.2 69.5 125.2 76zM169.9 87.3L169.9 93.6Q167.1 95.4 162.8 95.4A12.8 12.8 0 0 1 158.3 94.7Q155.2 93.5 153.1 90.6A14 14 0 0 1 153 90.4A17.7 17.7 0 0 1 150.8 85.6Q150.1 83.3 149.8 80.6A41.5 41.5 0 0 1 149.5 76.1A39 39 0 0 1 149.9 70.7Q150.7 65.2 153.1 61.7A12 12 0 0 1 156.7 58.2Q159.4 56.6 162.9 56.6A13.8 13.8 0 0 1 166.9 57.1A12.8 12.8 0 0 1 168.7 57.8Q169.8 58.3 170.9 59.1L168.6 64.8Q167.5 64 166.1 63.4A6.3 6.3 0 0 0 163.3 62.7A4.6 4.6 0 0 0 159.7 64.4Q159.1 65.1 158.6 66A11.1 11.1 0 0 0 158.5 66.3A14.3 14.3 0 0 0 157.5 69.2Q156.7 72.1 156.7 76.1A37.7 37.7 0 0 0 157 80.5Q158 89.3 163.6 89.3A10.6 10.6 0 0 0 166.9 88.7Q168.2 88.3 169.5 87.6A18.6 18.6 0 0 0 169.9 87.3z
							" />
</svg>
